
<!-- Generator: visioncortex VTracer 0.6.4 -->
<svg version="1.1" xmlns="http://www.w3.org/2000/svg" viewBox="0 0 1024 1024" preserveAspectRatio="xMidYMid meet">
<path d="M0 0 C337.92 0 675.84 0 1024 0 C1024 337.92 1024 675.84 1024 1024 C686.08 1024 348.16 1024 0 1024 C0 686.08 0 348.16 0 0 Z " fill="#FEFEFE" transform="translate(0,0)"/>
<path d="M0 0 C1.355 0.646 2.703 1.307 4.045 1.98 C4.786 2.337 5.526 2.694 6.29 3.063 C7.877 3.83 9.462 4.603 11.044 5.382 C15.284 7.469 19.545 9.511 23.803 11.562 C24.665 11.979 25.528 12.396 26.416 12.826 C34.515 16.737 42.688 20.469 50.889 24.16 C62.308 29.311 73.671 34.568 85.002 39.909 C94.505 44.387 104.046 48.773 113.621 53.096 C125.319 58.377 136.955 63.766 148.514 69.347 C149.464 69.805 149.464 69.805 150.434 70.272 C160.83 75.288 160.83 75.288 162.014 76.472 C162.112 79.296 162.151 82.101 162.154 84.925 C162.173 86.677 162.192 88.428 162.213 90.179 C162.242 92.949 162.264 95.718 162.264 98.487 C162.267 101.155 162.302 103.821 162.342 106.488 C162.331 107.724 162.331 107.724 162.32 108.985 C162.413 113.366 162.597 114.969 165.493 118.471 C166.325 119.132 167.157 119.792 168.014 120.472 C169.014 121.472 169.014 121.472 169.326 124.222 C169.014 127.472 169.014 127.472 166.95 129.741 C164.697 132.359 164.697 132.359 165.019 135.746 C165.364 137.563 165.364 137.563 165.717 139.417 C165.833 140.069 165.95 140.721 166.07 141.392 C166.446 143.465 166.854 145.531 167.264 147.597 C167.652 149.672 168.033 151.747 168.414 153.823 C168.763 155.703 169.127 157.58 169.491 159.457 C170.014 162.472 170.014 162.472 170.014 165.472 C169.354 165.472 168.694 165.472 168.014 165.472 C165.846 160.845 165.163 156.16 164.389 151.16 C163.935 148.293 163.481 145.426 163.014 142.472 C163.014 150.062 163.014 157.652 163.014 165.472 C162.354 165.142 161.694 164.812 161.014 164.472 C160.603 162.615 160.603 162.615 160.381 160.218 C160.305 159.449 160.228 158.68 160.15 157.888 C160.064 156.905 159.977 155.922 159.889 154.91 C159.456 150.238 159.456 150.238 159.014 145.472 C158.354 152.072 157.694 158.672 157.014 165.472 C156.354 165.472 155.694 165.472 155.014 165.472 C155.014 158.542 155.014 151.612 155.014 144.472 C153.778 151.007 153.778 151.007 152.561 157.546 C152.404 158.356 152.246 159.165 152.084 160 C151.927 160.832 151.77 161.665 151.608 162.523 C151.412 163.166 151.216 163.809 151.014 164.472 C150.354 164.802 149.694 165.132 149.014 165.472 C149.413 157.434 150.378 149.709 152.085 141.855 C153.083 137.1 153.083 137.1 152.014 132.472 C151.498 131.895 150.982 131.317 150.451 130.722 C148.343 127.422 148.198 124.216 149.014 120.472 C151.389 117.472 151.389 117.472 154.014 115.472 C154.674 115.472 155.334 115.472 156.014 115.472 C156.014 104.912 156.014 94.352 156.014 83.472 C153.777 84.5 151.541 85.527 149.236 86.585 C135.005 93.116 120.771 99.639 106.451 105.972 C105.413 106.434 104.375 106.896 103.305 107.372 C102.362 107.787 101.419 108.201 100.447 108.628 C99.633 108.987 98.819 109.346 97.98 109.716 C96.014 110.472 96.014 110.472 94.014 110.472 C93.988 109.387 93.962 108.301 93.936 107.183 C93.879 105.738 93.822 104.292 93.764 102.847 C93.749 102.134 93.735 101.421 93.721 100.687 C93.486 95.566 92.401 92.517 89.014 88.472 C70.303 73.524 39.667 69.479 16.539 71.711 C-24.992 76.439 -66.361 94.04 -92.986 127.472 C-103.269 141.018 -110.668 155.004 -114.986 171.472 C-115.233 172.356 -115.479 173.241 -115.732 174.152 C-118.803 187.41 -118.524 203.659 -113.986 216.472 C-113.77 217.155 -113.553 217.839 -113.33 218.542 C-112.64 220.571 -111.843 222.508 -110.986 224.472 C-110.611 225.363 -110.236 226.254 -109.85 227.171 C-102.296 243.728 -89.301 254.996 -73.65 263.75 C-72.614 264.33 -72.614 264.33 -71.557 264.922 C-64.479 268.833 -57.211 272.298 -49.879 275.702 C-45.767 277.613 -41.666 279.548 -37.564 281.48 C-36.71 281.882 -35.856 282.284 -34.975 282.698 C-25.785 287.027 -16.627 291.422 -7.488 295.857 C-5.716 296.715 -3.943 297.571 -2.169 298.424 C21.429 309.779 44.448 323.646 54.014 349.472 C58.734 365.223 57.446 383.848 50.506 398.699 C46.625 405.829 41.727 411.739 36.014 417.472 C35.423 418.086 34.833 418.699 34.225 419.332 C30.013 423.376 25.241 426.274 20.201 429.16 C19.562 429.528 18.922 429.897 18.263 430.277 C7.934 435.988 -1.041 438.128 -12.861 437.91 C-14.132 437.896 -15.403 437.882 -16.712 437.867 C-51.792 437.189 -83.605 426.827 -108.541 401.226 C-123.084 384.847 -135.223 360.669 -134.986 338.472 C-125.985 336.319 -116.959 334.425 -107.871 332.682 C-105.762 332.278 -103.655 331.868 -101.547 331.458 C-100.2 331.198 -98.853 330.939 -97.506 330.679 C-96.3 330.447 -95.095 330.215 -93.853 329.975 C-90.986 329.472 -90.986 329.472 -88.986 329.472 C-88.64 331.212 -88.64 331.212 -88.287 332.988 C-84.286 352.442 -77.364 368.822 -60.674 380.722 C-55.712 383.852 -50.582 385.775 -44.986 387.472 C-44.092 387.773 -43.197 388.073 -42.275 388.382 C-23.166 393.89 -0.949 391.741 16.783 383.167 C19.178 381.653 19.178 381.653 19.928 379.128 C20.243 369.383 14.246 360.458 8.014 353.472 C-2.862 343.066 -17.338 337.229 -30.674 330.597 C-32.223 329.825 -33.772 329.053 -35.32 328.281 C-37.625 327.132 -39.929 325.983 -42.234 324.836 C-45.918 323.004 -49.599 321.166 -53.272 319.313 C-61.124 315.355 -69.023 311.569 -77.049 307.972 C-94.948 299.84 -111.644 291.181 -125.986 277.472 C-126.673 276.86 -127.36 276.248 -128.068 275.617 C-143.666 261.188 -152.491 238.916 -153.334 217.949 C-154.06 183.807 -143.396 153.693 -119.975 128.613 C-118.368 126.883 -116.882 125.138 -115.424 123.285 C-108.442 115.229 -99.463 108.878 -90.986 102.472 C-90.373 102.007 -89.759 101.542 -89.126 101.063 C-78.169 92.875 -66.464 87.014 -53.986 81.472 C-71.297 87.053 -88.099 93.974 -102.783 104.855 C-104.986 106.472 -104.986 106.472 -105.986 106.472 C-106.316 100.202 -106.646 93.932 -106.986 87.472 C-110.21 93.92 -111.52 96.788 -112.236 103.472 C-112.314 104.152 -112.391 104.831 -112.471 105.531 C-112.656 107.176 -112.823 108.824 -112.986 110.472 C-125.385 105.567 -137.745 100.608 -149.814 94.933 C-153.156 93.394 -156.532 91.959 -159.924 90.535 C-164.926 88.393 -169.891 86.195 -174.799 83.847 C-175.96 83.298 -177.122 82.749 -178.318 82.183 C-180.986 80.472 -180.986 80.472 -181.873 78.261 C-181.91 77.671 -181.948 77.08 -181.986 76.472 C-177.54 73.823 -173.093 71.582 -168.346 69.527 C-165.995 68.476 -163.714 67.336 -161.424 66.16 C-156.973 63.903 -152.44 61.89 -147.861 59.91 C-143.225 57.903 -138.641 55.869 -134.146 53.558 C-125.037 48.979 -115.709 44.857 -106.303 40.929 C-103.865 39.858 -101.51 38.748 -99.139 37.546 C-94.08 34.985 -88.891 32.741 -83.697 30.472 C-80.083 28.883 -76.508 27.258 -72.986 25.472 C-67.98 22.934 -62.839 20.718 -57.697 18.472 C-54.15 16.912 -50.638 15.323 -47.182 13.57 C-41.819 10.851 -36.334 8.398 -30.861 5.91 C-28.754 4.951 -26.647 3.991 -24.541 3.031 C-23.069 2.367 -23.069 2.367 -21.567 1.69 C-18.836 0.453 -18.836 0.453 -15.807 -1.43 C-10.605 -3.455 -5.034 -2.171 0 0 Z " fill="#A5CE47" transform="translate(519.986328125,294.52783203125)"/>
<path d="M0 0 C0.682 -0.004 1.365 -0.009 2.068 -0.014 C18.552 -0.058 35.746 2.553 49.875 11.5 C50.875 12.5 50.875 12.5 50.995 14.48 C50.993 15.349 50.991 16.217 50.989 17.112 C50.988 18.093 50.988 19.073 50.988 20.084 C50.983 21.151 50.978 22.217 50.973 23.316 C50.971 24.946 50.971 24.946 50.968 26.608 C50.963 30.093 50.95 33.578 50.938 37.062 C50.932 39.419 50.928 41.775 50.924 44.131 C50.913 49.921 50.896 55.71 50.875 61.5 C47.889 60.033 45.023 58.428 42.158 56.734 C22.636 45.282 2.929 41.019 -19.562 41.062 C-20.278 41.062 -20.993 41.062 -21.731 41.062 C-29.086 41.086 -36.069 41.233 -43.125 43.5 C-42.542 43.484 -41.96 43.469 -41.359 43.452 C-23.686 43.041 -8.518 44.23 7.875 51.5 C8.859 51.919 9.842 52.338 10.855 52.77 C33.443 63.123 49.645 83.195 58.367 106.094 C61.233 114.125 63.875 122.944 63.875 131.5 C62.988 131.671 62.102 131.843 61.188 132.019 C57.852 132.664 54.516 133.309 51.18 133.954 C49.744 134.231 48.309 134.508 46.874 134.786 C45.48 135.055 44.086 135.324 42.692 135.594 C41.322 135.859 39.953 136.123 38.583 136.387 C34.039 137.265 29.507 138.19 24.984 139.172 C22.589 139.544 20.295 139.555 17.875 139.5 C17.716 138.629 17.558 137.757 17.395 136.859 C13.759 118.298 5.999 102.605 -9.766 91.668 C-26.287 81.176 -46.962 79.754 -65.988 83.266 C-75.418 85.441 -84.179 90.107 -90 98.062 C-92.085 104.434 -91.881 110.83 -90.062 117.25 C-78.482 136.676 -52.807 144.95 -33.054 153.648 C-30.313 154.859 -27.594 156.115 -24.875 157.375 C-23.323 158.093 -21.771 158.812 -20.219 159.53 C-18.571 160.293 -16.924 161.06 -15.277 161.828 C-9.704 164.417 -4.117 166.957 1.523 169.395 C29.841 181.641 55.33 195.984 68.191 225.523 C69.193 228.162 70.074 230.795 70.875 233.5 C71.088 234.199 71.3 234.897 71.52 235.617 C77.566 258.673 73.428 285.064 61.833 305.663 C59.149 310.221 56.316 314.486 52.875 318.5 C52.17 319.348 51.465 320.196 50.738 321.07 C42.489 330.609 33.084 337.831 22.25 344.188 C21.658 344.539 21.066 344.891 20.456 345.253 C18.773 346.199 18.773 346.199 15.875 347.5 C14.885 347.17 13.895 346.84 12.875 346.5 C13.42 346.013 13.966 345.525 14.527 345.023 C31.031 329.507 39.549 308.612 40.328 286.11 C40.636 266.598 35.277 251.556 22.875 236.5 C22.111 235.532 21.346 234.564 20.559 233.566 C17.838 230.317 14.78 227.715 11.438 225.125 C10.827 224.65 10.216 224.175 9.587 223.686 C-1.356 215.363 -13.805 209.486 -26.125 203.5 C-27.08 203.035 -28.036 202.569 -29.02 202.09 C-40.712 196.403 -52.435 190.795 -64.245 185.359 C-94.541 171.408 -94.541 171.408 -107.125 161.5 C-107.757 161.033 -108.388 160.567 -109.039 160.086 C-120.192 151.377 -129.902 135.515 -132.125 121.5 C-132.445 117.475 -132.506 113.474 -132.5 109.438 C-132.498 108.331 -132.497 107.224 -132.495 106.084 C-132.364 97.288 -131.154 89.804 -128.125 81.5 C-127.727 80.232 -127.727 80.232 -127.32 78.938 C-117.107 49.368 -89.339 26.999 -62.312 13.496 C-42.526 3.943 -21.903 0.044 0 0 Z " fill="#2EB3B0" transform="translate(557.125,373.5)"/>
<path d="M0 0 C0.346 1.74 0.346 1.74 0.699 3.516 C4.701 22.97 11.622 39.35 28.312 51.25 C33.275 54.38 38.404 56.303 44 58 C44.895 58.3 45.789 58.601 46.711 58.91 C65.669 64.374 88.367 62.605 105.672 53.305 C106.44 52.874 107.208 52.444 108 52 C108.66 51.67 109.32 51.34 110 51 C110.734 70.299 107.587 87.32 94 102 C93.551 102.521 93.102 103.043 92.64 103.58 C89.109 107.202 86.44 108.41 81.367 108.691 C79.203 108.684 77.038 108.639 74.875 108.562 C73.727 108.54 72.579 108.517 71.397 108.493 C36.637 107.484 5.154 97.121 -19.555 71.754 C-34.098 55.375 -46.237 31.197 -46 9 C-36.999 6.847 -27.972 4.953 -18.885 3.21 C-16.776 2.805 -14.668 2.396 -12.561 1.986 C-11.214 1.726 -9.867 1.467 -8.52 1.207 C-6.711 0.859 -6.711 0.859 -4.866 0.503 C-2 0 -2 0 0 0 Z " fill="#30B2AE" transform="translate(431,624)"/>
<path d="M0 0 C0.682 -0.004 1.365 -0.009 2.068 -0.014 C15.555 -0.05 28.08 2.255 40.875 6.5 C40.875 7.16 40.875 7.82 40.875 8.5 C39.187 8.357 37.5 8.21 35.812 8.062 C34.873 7.981 33.933 7.9 32.965 7.816 C30.808 7.596 28.658 7.312 26.516 6.98 C-8.853 2.313 -46.121 15.657 -74.105 36.746 C-94.923 53.314 -111.122 76.722 -114.73 103.582 C-116.924 125.367 -112.108 145.761 -98.121 162.965 C-96.487 164.843 -94.832 166.689 -93.125 168.5 C-94.115 168.83 -95.105 169.16 -96.125 169.5 C-100.045 167.197 -103.546 164.297 -107.125 161.5 C-108.096 160.783 -108.096 160.783 -109.086 160.051 C-120.215 151.351 -129.906 135.487 -132.125 121.5 C-132.445 117.475 -132.506 113.474 -132.5 109.438 C-132.498 108.331 -132.497 107.224 -132.495 106.084 C-132.364 97.288 -131.154 89.804 -128.125 81.5 C-127.727 80.232 -127.727 80.232 -127.32 78.938 C-117.107 49.368 -89.339 26.999 -62.312 13.496 C-42.526 3.943 -21.903 0.044 0 0 Z M40.875 8.5 C42.875 9.5 42.875 9.5 42.875 9.5 Z " fill="#239492" transform="translate(557.125,373.5)"/>
<path d="M0 0 C0.745 19.592 -2.639 35.917 -16 51 C-18.85 54.034 -20.835 55.956 -25.184 56.121 C-26.113 56.081 -27.042 56.041 -28 56 C-27.553 55.334 -27.105 54.667 -26.645 53.98 C-19.489 43.072 -13.827 32.418 -13.876 19.149 C-13.873 9.115 -13.873 9.115 -11.301 5.828 C-9.231 4.588 -7.28 3.772 -5 3 C-0.966 0 -0.966 0 0 0 Z " fill="#229391" transform="translate(541,675)"/>
<path d="M0 0 C0 1.65 0 3.3 0 5 C-0.33 5 -0.66 5 -1 5 C-1.141 5.752 -1.282 6.504 -1.427 7.279 C-2.068 10.667 -2.721 14.052 -3.375 17.438 C-3.708 19.214 -3.708 19.214 -4.047 21.025 C-4.266 22.15 -4.485 23.275 -4.711 24.434 C-4.91 25.476 -5.109 26.518 -5.314 27.592 C-5.54 28.386 -5.767 29.181 -6 30 C-6.66 30.33 -7.32 30.66 -8 31 C-7.637 23.695 -6.892 16.513 -5.625 9.312 C-5.511 8.618 -5.397 7.923 -5.28 7.207 C-4.914 5.238 -4.914 5.238 -4 2 C-1 0 -1 0 0 0 Z " fill="#B6D76A" transform="translate(677,429)"/>
<path d="M0 0 C0.99 0 1.98 0 3 0 C3.715 3.932 4.427 7.865 5.136 11.798 C5.378 13.136 5.62 14.473 5.864 15.811 C6.214 17.734 6.56 19.658 6.906 21.582 C7.116 22.739 7.325 23.897 7.541 25.089 C8 28 8 28 8 31 C7.34 31 6.68 31 6 31 C4.505 27.537 3.565 24.301 2.93 20.586 C2.669 19.074 2.669 19.074 2.402 17.531 C2.141 15.969 2.141 15.969 1.875 14.375 C1.602 12.801 1.602 12.801 1.324 11.195 C0 3.429 0 3.429 0 0 Z " fill="#B6D769" transform="translate(682,429)"/>
<path d="M0 0 C1.43 2.861 0.673 4.743 0.125 7.875 C-0.925 14.239 -1.56 20.567 -2 27 C-2.66 27 -3.32 27 -4 27 C-4.055 24.646 -4.094 22.292 -4.125 19.938 C-4.148 18.627 -4.171 17.316 -4.195 15.965 C-3.912 10.219 -2.232 5.262 0 0 Z " fill="#B1D560" transform="translate(679,433)"/>
<path d="M0 0 C0.33 0 0.66 0 1 0 C0.886 2.084 0.758 4.167 0.625 6.25 C0.555 7.41 0.486 8.57 0.414 9.766 C0.038 12.707 -0.477 14.499 -2 17 C-2.33 17 -2.66 17 -3 17 C-2.886 14.916 -2.758 12.833 -2.625 10.75 C-2.555 9.59 -2.486 8.43 -2.414 7.234 C-2.038 4.293 -1.523 2.501 0 0 Z " fill="#AED35A" transform="translate(672,443)"/>
<path d="M0 0 C0.99 0 1.98 0 3 0 C3.33 2.97 3.66 5.94 4 9 C3.01 8.67 2.02 8.34 1 8 C0.67 5.36 0.34 2.72 0 0 Z " fill="#B6D769" transform="translate(682,429)"/>
<path d="M0 0 C0.66 0 1.32 0 2 0 C2.33 2.97 2.66 5.94 3 9 C2.34 9 1.68 9 1 9 C0.67 6.03 0.34 3.06 0 0 Z " fill="#AED35A" transform="translate(684,438)"/>
<path d="M0 0 C0.99 0.495 0.99 0.495 2 1 C2.625 4.062 2.625 4.062 3 7 C2.34 7 1.68 7 1 7 C0.67 4.69 0.34 2.38 0 0 Z " fill="#AED359" transform="translate(687,453)"/>
<path d="M0 0 C0.66 0.66 1.32 1.32 2 2 C1.01 2.33 0.02 2.66 -1 3 C-0.67 2.01 -0.34 1.02 0 0 Z " fill="#D2ECDD" transform="translate(569,720)"/>
</svg>